<?xml version="1.0" standalone="no"?><!DOCTYPE svg PUBLIC "-//W3C//DTD SVG 1.1//EN" "http://www.w3.org/Graphics/SVG/1.1/DTD/svg11.dtd"><svg class="icon" width="200px" height="151.59px" viewBox="0 0 1351 1024" version="1.1" xmlns="http://www.w3.org/2000/svg"><path fill="#333333" d="M1034.82681699 958.63992119H117.76652597A22.27676836 22.27676836 0 0 1 99.20255205 949.35793378 22.27676836 22.27676836 0 0 1 99.20255205 928.93756309l185.63973574-588.47796036A22.27676836 22.27676836 0 0 1 307.11905528 321.89562881h917.06029189a22.27676836 22.27676836 0 0 1 20.4203707 29.70235811l-185.63973487 588.47796035a22.27676836 22.27676836 0 0 1-22.27676836 16.70757627zM147.4688832 912.22998682h872.50675518L1188.90779786 368.30556318H321.97023477L147.4688832 912.22998682z"  /><path fill="#333333" d="M84.35137344 958.63992119A22.27676836 22.27676836 0 0 1 62.07460508 934.50675518V128.83030508C62.07460508 91.70235723 91.77696318 62 128.90491016 62h313.73115205C479.76400918 62 507.60996963 91.70235723 507.60996963 128.83030508v55.69192002h491.94529805a22.27676836 22.27676836 0 1 1 0 44.55353672H487.18959893A22.27676836 22.27676836 0 0 1 464.91283057 206.79899346V128.83030508A22.27676836 22.27676836 0 0 0 442.63606221 106.55353672H128.90491016a22.27676836 22.27676836 0 0 0-22.27676836 22.27676836v807.53284775a22.27676836 22.27676836 0 0 1-22.27676836 22.27676836z"  /></svg>