<?xml version="1.0" standalone="no"?><!DOCTYPE svg PUBLIC "-//W3C//DTD SVG 1.1//EN" "http://www.w3.org/Graphics/SVG/1.1/DTD/svg11.dtd"><svg class="icon" width="200px" height="200.00px" viewBox="0 0 1024 1024" version="1.1" xmlns="http://www.w3.org/2000/svg"><path fill="#333333" d="M911.989715 217.145632q16.017142 16.017142 27.426612 43.443754t11.409471 50.318692l0 658.238697q0 22.818942-16.017142 38.836083t-38.836083 16.017142l-767.945147 0q-22.818942 0-38.836083-16.017142t-16.017142-38.836083l0-914.220413q0-22.818942 16.017142-38.836083t38.836083-16.017142l511.963431 0q22.818942 0 50.318692 11.409471t43.443754 27.426612zM658.275266 77.672166l0 214.805228 214.805228 0q-5.704735-16.602243-12.579673-23.404043l-178.821513-178.821513q-6.874938-6.874938-23.404043-12.579673zM877.688165 950.789229l0-585.101064-237.697307 0q-22.818942 0-38.836083-16.017142t-16.017142-38.836083l0-237.697307-438.825798 0 0 877.651596 731.37633 0zM292.587101 457.110206q0-7.972002 5.119634-13.164774t13.164774-5.119634l402.256982 0q7.972002 0 13.164774 5.119634t5.119634 13.164774l0 36.568817q0 7.972002-5.119634 13.164774t-13.164774 5.119634l-402.256982 0q-7.972002 0-13.164774-5.119634t-5.119634-13.164774l0-36.568817zM713.128491 585.101064q7.972002 0 13.164774 5.119634t5.119634 13.164774l0 36.568817q0 7.972002-5.119634 13.164774t-13.164774 5.119634l-402.256982 0q-7.972002 0-13.164774-5.119634t-5.119634-13.164774l0-36.568817q0-7.972002 5.119634-13.164774t13.164774-5.119634l402.256982 0zM713.128491 731.37633q7.972002 0 13.164774 5.119634t5.119634 13.164774l0 36.568817q0 7.972002-5.119634 13.164774t-13.164774 5.119634l-402.256982 0q-7.972002 0-13.164774-5.119634t-5.119634-13.164774l0-36.568817q0-7.972002 5.119634-13.164774t13.164774-5.119634l402.256982 0z" /></svg>