<?xml version="1.0" standalone="no"?><!DOCTYPE svg PUBLIC "-//W3C//DTD SVG 1.1//EN" "http://www.w3.org/Graphics/SVG/1.1/DTD/svg11.dtd"><svg class="icon" width="200px" height="200.00px" viewBox="0 0 1024 1024" version="1.1" xmlns="http://www.w3.org/2000/svg"><path fill="#333333" d="M890.25221 217.088q16.384 16.384 27.648 43.008t11.264 51.2l0 657.408q0 23.552-15.36 38.912t-38.912 16.384l-768 0q-23.552 0-38.912-16.384t-16.384-38.912l0-913.408q0-23.552 16.384-38.912t38.912-16.384l512 0q22.528 0 50.176 11.264t43.008 27.648zM636.30021 77.824l0 215.04 215.04 0q-5.12-16.384-12.288-23.552l-179.2-179.2q-6.144-7.168-23.552-12.288zM856.46021 951.296l0-585.728-237.568 0q-23.552 0-38.912-15.36t-16.384-38.912l0-238.592-439.296 0 0 878.592 732.16 0zM782.73221 695.296l0 182.272-584.704 0 0-109.568 109.568-109.568 72.704 72.704 220.16-219.136zM307.59621 584.704q-46.08 0-77.824-31.744t-31.744-77.824 31.744-77.824 77.824-31.744 77.824 31.744 31.744 77.824-31.744 77.824-77.824 31.744z" /></svg>