<?xml version="1.0" standalone="no"?><!DOCTYPE svg PUBLIC "-//W3C//DTD SVG 1.1//EN" "http://www.w3.org/Graphics/SVG/1.1/DTD/svg11.dtd"><svg t="1509415476095" class="icon" style="" viewBox="0 0 1024 1024" version="1.1" xmlns="http://www.w3.org/2000/svg" p-id="2553" xmlns:xlink="http://www.w3.org/1999/xlink" width="16" height="16"><defs><style type="text/css"></style></defs><path d="M630.153846 55.138462L890.092308 315.076923H945.230769l-315.076923-315.076923v39.384615z" p-id="2554"></path><path d="M905.846154 945.230769c0 23.630769-19.692308 39.384615-39.384616 39.384616H157.538462c-19.692308 0-39.384615-15.753846-39.384616-39.384616V78.769231c0-23.630769 19.692308-39.384615 39.384616-39.384616h433.230769v-39.384615H157.538462c-43.323077 0-78.769231 35.446154-78.769231 78.769231v866.461538c0 43.323077 35.446154 78.769231 78.769231 78.769231h708.923076c43.323077 0 78.769231-35.446154 78.769231-78.769231V354.461538h-39.384615v590.769231z" p-id="2555"></path><path d="M669.538462 315.076923c-23.630769 0-39.384615-15.753846-39.384616-39.384615v-220.553846l-15.753846-15.753847H590.769231v236.307693c0 43.323077 35.446154 78.769231 78.769231 78.76923h236.307692v-23.630769l-15.753846-15.753846H669.538462zM890.092308 315.076923l15.753846 15.753846V315.076923z" p-id="2556"></path><path d="M630.153846 39.384615h-15.753846l15.753846 15.753847zM945.230769 315.076923l-27.569231 27.569231-11.815384-11.815385V354.461538h39.384615V315.076923zM614.4 39.384615l-11.815385-11.815384 27.569231-27.569231h-39.384615v39.384615z" p-id="2557"></path><path d="M602.584615 27.569231l11.815385 11.815384h15.753846v-39.384615zM905.846154 330.830769l11.815384 11.815385 27.569231-27.569231h-39.384615zM354.461538 118.153846h118.153847v78.769231h-118.153847zM354.461538 275.692308h118.153847v78.76923h-118.153847zM236.307692 39.384615h118.153846v78.769231H236.307692zM236.307692 196.923077h118.153846v78.769231H236.307692zM236.307692 512h118.153846v78.769231H236.307692zM354.461538 590.769231h118.153847v78.769231h-118.153847zM354.461538 433.230769h118.153847v78.769231h-118.153847zM236.307692 354.461538h118.153846v78.769231H236.307692zM236.307692 669.538462v118.153846c0 23.630769 15.753846 39.384615 39.384616 39.384615h157.538461c19.692308 0 39.384615-19.692308 39.384616-39.384615v-118.153846H236.307692z m196.923077 118.153846H275.692308v-78.769231h157.538461v78.769231z" p-id="2558"></path></svg>